# xmcd
#
# Track frame offsets: 
#        150
#        21814
#        39250
#        55630
#        77465
#        98990
#        123437
#        147734
#        163843
#        180224
#        197869
#        218307
#        234165
#        258622
#
# Disc length: 3634 seconds
#
# Revision: 1
# Processed by: cddbd v1.5.2PL0 Copyright (c) Steve Scherf et al.
# Submitted via: ExactAudioCopy v0.99pb4
#
DISCID=b10e300e
DTITLE=Rod Piazza and the Mighty Flyers - ThrillVille
DYEAR=2007
DGENRE=Blues
TTITLE0=Hate to See You Go/Shake Your Hips
TTITLE1=Westcoaster
TTITLE2=Sugar
TTITLE3=Get Wise
TTITLE4=Hoodoo Man Blues
TTITLE5=MFBQ
TTITLE6=Honey Bee
TTITLE7=I Don't Play
TTITLE8=The Civilian
TTITLE9=Stranded
TTITLE10=It Can't Be True
TTITLE11=Snap Crackle Hop
TTITLE12=Stranger Blues
TTITLE13=Sad Hours
EXTD=
EXTT0=
EXTT1=
EXTT2=
EXTT3=
EXTT4=
EXTT5=
EXTT6=
EXTT7=
EXTT8=
EXTT9=
EXTT10=
EXTT11=
EXTT12=
EXTT13=
PLAYORDER=
